<?xml version="1.0" encoding="UTF-8" standalone="no"?>
<!-- Created with Inkscape (http://www.inkscape.org/) -->

<svg
   width="79.659729mm"
   height="45.730461mm"
   viewBox="0 0 79.659729 45.730461"
   version="1.1"
   id="svg5"
   inkscape:version="1.1.2 (b8e25be833, 2022-02-05)"
   sodipodi:docname="mouse.svg"
   inkscape:export-filename="../Assets/Sprites/Mouse right click.png"
   inkscape:export-xdpi="277.71423"
   inkscape:export-ydpi="277.71423"
   xmlns:inkscape="http://www.inkscape.org/namespaces/inkscape"
   xmlns:sodipodi="http://sodipodi.sourceforge.net/DTD/sodipodi-0.dtd"
   xmlns="http://www.w3.org/2000/svg"
   xmlns:svg="http://www.w3.org/2000/svg">
  <sodipodi:namedview
     id="namedview7"
     pagecolor="#505050"
     bordercolor="#ffffff"
     borderopacity="1"
     inkscape:pageshadow="0"
     inkscape:pageopacity="0"
     inkscape:pagecheckerboard="1"
     inkscape:document-units="mm"
     showgrid="false"
     inkscape:zoom="2.1174176"
     inkscape:cx="138.84838"
     inkscape:cy="93.982408"
     inkscape:window-width="1920"
     inkscape:window-height="1027"
     inkscape:window-x="-8"
     inkscape:window-y="-8"
     inkscape:window-maximized="1"
     inkscape:current-layer="layer1" />
  <defs
     id="defs2" />
  <g
     inkscape:label="Layer 1"
     inkscape:groupmode="layer"
     id="layer1"
     transform="translate(-58.770166,-94.607983)">
    <g
       id="g1468"
       transform="rotate(-22.985173,76.645156,117.14516)">
      <path
         id="path846"
         style="fill:none;stroke:#ffffff;stroke-width:0.93;stroke-dashoffset:4.42091;paint-order:stroke markers fill"
         d="m 94.06451,120.62903 c -2e-6,12.74709 -7.798911,19.59677 -17.419353,19.59677 -9.620442,0 -17.419352,-6.84968 -17.419354,-19.59677 -10e-7,-12.74709 7.79891,-26.564519 17.419354,-26.564518 9.620444,0 17.419354,13.817428 17.419353,26.564518 z"
         sodipodi:nodetypes="sssss" />
      <path
         style="fill:none;stroke:#ffffff;stroke-width:0.93;stroke-dashoffset:4.42091;paint-order:stroke markers fill"
         d="M 76.645156,94.216576 V 114.83426"
         id="path1085" />
      <path
         style="fill:none;stroke:#ffffff;stroke-width:0.93;stroke-dashoffset:4.42091;paint-order:stroke markers fill"
         d="M 59.603854,115.17978 H 93.21693"
         id="path1200" />
    </g>
    <g
       id="g1776"
       transform="rotate(-22.985173,97.575231,14.202378)">
      <path
         id="path1770"
         style="fill:none;stroke:#ffffff;stroke-width:0.93;stroke-dashoffset:4.42091;paint-order:stroke markers fill"
         d="m 94.06451,120.62903 c -2e-6,12.74709 -7.798911,19.59677 -17.419353,19.59677 -9.620442,0 -17.419352,-6.84968 -17.419354,-19.59677 -10e-7,-12.74709 7.79891,-26.564519 17.419354,-26.564518 9.620444,0 17.419354,13.817428 17.419353,26.564518 z"
         sodipodi:nodetypes="sssss" />
      <path
         style="fill:none;stroke:#ffffff;stroke-width:0.93;stroke-dashoffset:4.42091;paint-order:stroke markers fill"
         d="M 76.645156,94.216576 V 114.83426"
         id="path1772" />
      <path
         style="fill:none;stroke:#ffffff;stroke-width:0.93;stroke-dashoffset:4.42091;paint-order:stroke markers fill"
         d="M 59.603854,115.17978 H 93.21693"
         id="path1774" />
    </g>
    <path
       style="fill:#ffffff;fill-opacity:0.576271;stroke:none;stroke-width:1.66002;stroke-dashoffset:4.42091;paint-order:stroke markers fill"
       d="m 48.542696,3.5651108 c -4.120125,0.3351574 -8.723235,0.2423429 -12.366738,2.361367 0.509329,3.1410483 2.543427,6.2053292 3.570643,9.3091052 8.444779,19.93538 16.653734,39.986883 25.415137,59.777482 1.414404,1.971155 3.830885,-0.828085 5.524684,-0.99491 16.664936,-7.087847 33.453398,-14.034681 49.996958,-21.32093 0.28937,-1.988342 -2.16467,-3.47887 -2.9019,-5.186705 C 104.36588,29.235902 86.569141,12.982531 64.625454,5.9751936 59.421939,4.3965721 53.990861,3.4716959 48.542696,3.5651108 Z"
       id="path1932"
       transform="matrix(0.26458333,0,0,0.26458333,58.770166,94.607983)" />
  </g>
</svg>
