<?xml version="1.0" encoding="UTF-8" standalone="no"?>
<!-- Created with Inkscape (http://www.inkscape.org/) -->

<svg
   width="210mm"
   height="297mm"
   viewBox="0 0 210 297"
   version="1.1"
   id="svg5"
   inkscape:version="1.2.2 (732a01da63, 2022-12-09)"
   sodipodi:docname="adivinen quien tiene migrana.svg"
   xmlns:inkscape="http://www.inkscape.org/namespaces/inkscape"
   xmlns:sodipodi="http://sodipodi.sourceforge.net/DTD/sodipodi-0.dtd"
   xmlns="http://www.w3.org/2000/svg"
   xmlns:svg="http://www.w3.org/2000/svg">
  <sodipodi:namedview
     id="namedview7"
     pagecolor="#505050"
     bordercolor="#ffffff"
     borderopacity="1"
     inkscape:showpageshadow="0"
     inkscape:pageopacity="0"
     inkscape:pagecheckerboard="1"
     inkscape:deskcolor="#505050"
     inkscape:document-units="mm"
     showgrid="false"
     inkscape:zoom="0.84096521"
     inkscape:cx="832.97144"
     inkscape:cy="-560.07073"
     inkscape:window-width="1920"
     inkscape:window-height="1027"
     inkscape:window-x="-8"
     inkscape:window-y="-8"
     inkscape:window-maximized="1"
     inkscape:current-layer="layer1" />
  <defs
     id="defs2">
    <clipPath
       clipPathUnits="userSpaceOnUse"
       id="clipPath772">
      <path
         id="path774"
         style="fill:#ff0000;stroke-width:0.499996;stroke-linecap:round;stroke-linejoin:round;paint-order:stroke markers fill"
         d="m 153.06198,-193.17581 a 51.440146,51.440146 0 0 0 -51.44028,51.44028 51.440146,51.440146 0 0 0 51.44028,51.43975 51.440146,51.440146 0 0 0 20.72948,-4.400249 45.305083,45.305083 0 0 1 -6.4146,0.467673 45.305083,45.305083 0 0 1 -45.30472,-45.305244 45.305083,45.305083 0 0 1 45.30472,-45.30473 45.305083,45.305083 0 0 1 19.68976,4.50618 51.440146,51.440146 0 0 0 -34.00464,-12.84366 z" />
    </clipPath>
  </defs>
  <g
     inkscape:label="Layer 1"
     inkscape:groupmode="layer"
     id="layer1">
    <g
       id="g1014"
       clip-path="url(#clipPath772)"
       style="stroke:#000000"
       transform="translate(0,-0.52916667)">
      <path
         style="fill:#ff00ff;stroke:#000000;stroke-width:0.499999;stroke-linecap:round;stroke-linejoin:round;paint-order:stroke markers fill"
         d="m 179.48993,-186.56885 -4.09004,3.77542"
         id="path936" />
      <path
         style="fill:none;stroke:#000000;stroke-width:0.499999;stroke-linecap:round;stroke-linejoin:round;paint-order:stroke markers fill"
         d="m 178.70339,-184.13056 2.12367,-1.33713 -0.55058,1.80906 z"
         id="path938" />
      <path
         style="fill:#ff00ff;stroke:#000000;stroke-width:0.499999;stroke-linecap:round;stroke-linejoin:round;paint-order:stroke markers fill"
         d="m 181.84958,-185.70365 -1.41579,3.85407"
         id="path940" />
      <path
         style="fill:#ff00ff;stroke:#000000;stroke-width:0.499999;stroke-linecap:round;stroke-linejoin:round;paint-order:stroke markers fill"
         d="m 177.83819,-183.50132 1.88771,0.78654"
         id="path942" />
      <path
         style="fill:none;stroke:#000000;stroke-width:0.499999;stroke-linecap:round;stroke-linejoin:round;paint-order:stroke markers fill"
         d="m 174.06276,-183.02939 3.69677,-5.42717"
         id="path944" />
      <path
         style="fill:none;stroke:#000000;stroke-width:0.499999;stroke-linecap:round;stroke-linejoin:round;paint-order:stroke markers fill"
         d="m 173.19756,-186.88347 1.7304,0.55058 v -1.65175 z"
         id="path946" />
      <path
         style="fill:none;stroke:#000000;stroke-width:0.499999;stroke-linecap:round;stroke-linejoin:round;paint-order:stroke markers fill"
         d="m 174.45604,-185.625 -2.75292,-0.78654"
         id="path948" />
      <path
         style="fill:none;stroke:#000000;stroke-width:0.499999;stroke-linecap:round;stroke-linejoin:round;paint-order:stroke markers fill"
         d="m 174.14142,-189.16446 -5.0339,4.40466"
         id="path950" />
      <path
         style="fill:none;stroke:#000000;stroke-width:0.499999;stroke-linecap:round;stroke-linejoin:round;paint-order:stroke markers fill"
         d="m 167.9277,-184.68114 3.61811,-6.68565"
         id="path952" />
      <path
         style="fill:none;stroke:#000000;stroke-width:0.499999;stroke-linecap:round;stroke-linejoin:round;paint-order:stroke markers fill"
         d="m 166.74788,-184.91711 -0.70789,-7.70815"
         id="path954" />
      <path
         style="fill:none;stroke:#000000;stroke-width:0.499999;stroke-linecap:round;stroke-linejoin:round;paint-order:stroke markers fill"
         d="m 162.0286,-190.02966 -1.88771,4.09004 h 4.56197 z"
         id="path956" />
      <path
         style="fill:none;stroke:#000000;stroke-width:0.499999;stroke-linecap:round;stroke-linejoin:round;paint-order:stroke markers fill"
         d="m 162.26457,-192.07468 -3.69677,7.23623 7.23622,-0.31461 z"
         id="path958"
         sodipodi:nodetypes="cccc" />
      <path
         style="fill:none;stroke:#000000;stroke-width:0.499999;stroke-linecap:round;stroke-linejoin:round;paint-order:stroke markers fill"
         d="m 162.0286,-188.14195 -0.94386,1.49444 1.41579,-0.15731 z"
         id="path960" />
      <path
         style="fill:none;stroke:#000000;stroke-width:0.499999;stroke-linecap:round;stroke-linejoin:round;paint-order:stroke markers fill"
         d="m 161.71398,-193.41181 -4.48331,10.30376 v -12.27013 l -2.12368,13.60726 -0.55058,-13.05667"
         id="path962" />
      <path
         style="fill:none;stroke:#000000;stroke-width:0.499999;stroke-linecap:round;stroke-linejoin:round;paint-order:stroke markers fill"
         d="m 150.93829,-192.23199 -1.25847,2.91022 2.98888,-0.23596 z"
         id="path964" />
      <path
         style="fill:none;stroke:#000000;stroke-width:0.499999;stroke-linecap:round;stroke-linejoin:round;paint-order:stroke markers fill"
         d="m 153.29793,-187.67002 -4.56197,-0.15731"
         id="path966" />
      <path
         style="fill:none;stroke:#000000;stroke-width:0.499999;stroke-linecap:round;stroke-linejoin:round;paint-order:stroke markers fill"
         d="m 154.24179,-186.33289 -5.66314,0.94386"
         id="path968" />
      <path
         style="fill:none;stroke:#000000;stroke-width:0.499999;stroke-linecap:round;stroke-linejoin:round;paint-order:stroke markers fill"
         d="m 154.32044,-184.7598 -6.37102,1.33713"
         id="path970" />
      <path
         style="fill:none;stroke:#000000;stroke-width:0.499999;stroke-linecap:round;stroke-linejoin:round;paint-order:stroke markers fill"
         d="m 143.23014,-191.13083 4.40466,9.98915 -8.10143,2.98887 z"
         id="path972" />
      <path
         style="fill:none;stroke:#000000;stroke-width:0.499999;stroke-linecap:round;stroke-linejoin:round;paint-order:stroke markers fill"
         d="m 141.65704,-192.86123 -5.42717,23.36044 2.98888,-24.30429 -4.79794,25.95603 0.47193,-24.46159 -1.10116,24.46159 -2.75292,-23.59639 1.17982,23.83236"
         id="path974" />
      <path
         style="fill:none;stroke:#000000;stroke-width:0.499999;stroke-linecap:round;stroke-linejoin:round;paint-order:stroke markers fill"
         d="m 139.14009,-176.81568 10.46107,-3.06753 -11.24761,4.1687"
         id="path976" />
      <path
         style="fill:none;stroke:#000000;stroke-width:0.499999;stroke-linecap:round;stroke-linejoin:round;paint-order:stroke markers fill"
         d="M 126.94862,-145.58978 H 94.621555"
         id="path978" />
      <path
         style="fill:none;stroke:#000000;stroke-width:0.499999;stroke-linecap:round;stroke-linejoin:round;paint-order:stroke markers fill"
         d="M 127.4992,-143.54475 H 94.857521"
         id="path980" />
      <path
         style="fill:none;stroke:#000000;stroke-width:0.499999;stroke-linecap:round;stroke-linejoin:round;paint-order:stroke markers fill"
         d="m 103.43088,-140.63453 16.28151,-0.0787 1.73041,11.87686 z"
         id="path982" />
      <path
         style="fill:none;stroke:#000000;stroke-width:0.499999;stroke-linecap:round;stroke-linejoin:round;paint-order:stroke markers fill"
         d="m 99.104872,-139.53337 26.113348,14.86573"
         id="path984" />
      <path
         style="fill:none;stroke:#000000;stroke-width:0.499999;stroke-linecap:round;stroke-linejoin:round;paint-order:stroke markers fill"
         d="m 115.5437,-127.18458 8.88797,4.16869 -8.96663,1.57309 z"
         id="path986" />
      <path
         style="fill:none;stroke:#000000;stroke-width:0.499999;stroke-linecap:round;stroke-linejoin:round;paint-order:stroke markers fill"
         d="m 113.73464,-129.22961 -1.25848,21.78734 -0.8652,-22.57388 -3.69677,22.18061 2.12368,-22.41658"
         id="path988" />
      <path
         style="fill:none;stroke:#000000;stroke-width:0.499999;stroke-linecap:round;stroke-linejoin:round;paint-order:stroke markers fill"
         d="m 103.50953,-132.69041 5.19121,2.83156 -1.65175,9.04529 z"
         id="path990" />
      <path
         style="fill:none;stroke:#000000;stroke-width:0.499999;stroke-linecap:round;stroke-linejoin:round;paint-order:stroke markers fill"
         d="m 100.04873,-148.89327 26.03469,0.70789 -26.899893,-7.15757 26.427963,4.16869 -25.48411,-10.93299 26.82124,7.78681 -24.93352,-14.94439 29.25953,10.14645 -25.40546,-15.10169 24.93353,12.11282"
         id="path992" />
      <path
         style="fill:none;stroke:#000000;stroke-width:0.499999;stroke-linecap:round;stroke-linejoin:round;paint-order:stroke markers fill"
         d="m 114.91446,-172.33236 13.76456,6.37103 -0.0787,-19.19174 z"
         id="path994" />
      <path
         style="fill:none;stroke:#000000;stroke-width:0.499999;stroke-linecap:round;stroke-linejoin:round;paint-order:stroke markers fill"
         d="m 117.82468,-173.04025 8.73067,-6.60699 -0.15731,10.77568 z"
         id="path996" />
      <path
         style="fill:none;stroke:#000000;stroke-width:0.499999;stroke-linecap:round;stroke-linejoin:round;paint-order:stroke markers fill"
         d="m 114.52118,-109.8019 16.43883,0.47192 -0.55058,11.247619 9.91048,-3.775419 0.23597,8.730663 8.73067,-3.067532 3.06753,5.191207 9.28125,-2.988876 4.48331,1.415783 3.85408,-1.415783"
         id="path998" />
      <path
         style="fill:none;stroke:#000000;stroke-width:0.499999;stroke-linecap:round;stroke-linejoin:round;paint-order:stroke markers fill"
         d="m 118.1393,-106.65572 9.83183,-1.17982 -2.91022,6.92161 z"
         id="path1000" />
      <path
         style="fill:none;stroke:#000000;stroke-width:0.499999;stroke-linecap:round;stroke-linejoin:round;paint-order:stroke markers fill"
         d="m 117.03813,-113.02675 10.933,-0.23596 -4.87659,-7.23623 z"
         id="path1002" />
      <path
         style="fill:none;stroke:#000000;stroke-width:0.499999;stroke-linecap:round;stroke-linejoin:round;paint-order:stroke markers fill"
         d="m 132.69041,-107.52092 4.79794,4.09004 -5.7418,2.98888 z"
         id="path1004" />
      <path
         style="fill:none;stroke:#000000;stroke-width:0.499999;stroke-linecap:round;stroke-linejoin:round;paint-order:stroke markers fill"
         d="m 138.66817,-99.576799 -6.68565,2.595602 6.52834,2.674261 z"
         id="path1006" />
      <path
         style="fill:none;stroke:#000000;stroke-width:0.499999;stroke-linecap:round;stroke-linejoin:round;paint-order:stroke markers fill"
         d="m 144.3313,-92.812498 4.24735,-1.651749 1.33713,2.831568 z"
         id="path1008" />
      <path
         style="fill:none;stroke:#000000;stroke-width:0.499999;stroke-linecap:round;stroke-linejoin:round;paint-order:stroke markers fill"
         d="m 158.17452,-91.475371 3.61811,-1.573091 0.86521,0.70789 z"
         id="path1010" />
      <path
         style="fill:none;stroke:#000000;stroke-width:0.499999;stroke-linecap:round;stroke-linejoin:round;paint-order:stroke markers fill"
         d="m 151.80349,-95.644067 1.17982,2.831569 3.69677,-1.651749 z"
         id="path1012" />
    </g>
    <g
       id="g722"
       clip-path="url(#clipPath772)">
      <path
         style="fill:#ff00ff;stroke-width:0.499999;stroke-linecap:round;stroke-linejoin:round;paint-order:stroke markers fill;stroke:#ffffff"
         d="m 179.48993,-186.56885 -4.09004,3.77542"
         id="path401" />
      <path
         style="fill:none;stroke:#ffffff;stroke-width:0.499999;stroke-linecap:round;stroke-linejoin:round;paint-order:stroke markers fill"
         d="m 178.70339,-184.13056 2.12367,-1.33713 -0.55058,1.80906 z"
         id="path457" />
      <path
         style="fill:#ff00ff;stroke:#ffffff;stroke-width:0.499999;stroke-linecap:round;stroke-linejoin:round;paint-order:stroke markers fill"
         d="m 181.84958,-185.70365 -1.41579,3.85407"
         id="path459" />
      <path
         style="fill:#ff00ff;stroke:#ffffff;stroke-width:0.499999;stroke-linecap:round;stroke-linejoin:round;paint-order:stroke markers fill"
         d="m 177.83819,-183.50132 1.88771,0.78654"
         id="path461" />
      <path
         style="fill:none;stroke:#ffffff;stroke-width:0.499999;stroke-linecap:round;stroke-linejoin:round;paint-order:stroke markers fill"
         d="m 174.06276,-183.02939 3.69677,-5.42717"
         id="path517" />
      <path
         style="fill:none;stroke:#ffffff;stroke-width:0.499999;stroke-linecap:round;stroke-linejoin:round;paint-order:stroke markers fill"
         d="m 173.19756,-186.88347 1.7304,0.55058 v -1.65175 z"
         id="path519" />
      <path
         style="fill:none;stroke:#ffffff;stroke-width:0.499999;stroke-linecap:round;stroke-linejoin:round;paint-order:stroke markers fill"
         d="m 174.45604,-185.625 -2.75292,-0.78654"
         id="path521" />
      <path
         style="fill:none;stroke:#ffffff;stroke-width:0.499999;stroke-linecap:round;stroke-linejoin:round;paint-order:stroke markers fill"
         d="m 174.14142,-189.16446 -5.0339,4.40466"
         id="path523" />
      <path
         style="fill:none;stroke:#ffffff;stroke-width:0.499999;stroke-linecap:round;stroke-linejoin:round;paint-order:stroke markers fill"
         d="m 167.9277,-184.68114 3.61811,-6.68565"
         id="path525" />
      <path
         style="fill:none;stroke:#ffffff;stroke-width:0.499999;stroke-linecap:round;stroke-linejoin:round;paint-order:stroke markers fill"
         d="m 166.74788,-184.91711 -0.70789,-7.70815"
         id="path527" />
      <path
         style="fill:none;stroke:#ffffff;stroke-width:0.499999;stroke-linecap:round;stroke-linejoin:round;paint-order:stroke markers fill"
         d="m 162.0286,-190.02966 -1.88771,4.09004 h 4.56197 z"
         id="path529" />
      <path
         style="fill:none;stroke:#ffffff;stroke-width:0.499999;stroke-linecap:round;stroke-linejoin:round;paint-order:stroke markers fill"
         d="m 162.26457,-192.07468 -3.69677,7.23623 7.23622,-0.31461 z"
         id="path531"
         sodipodi:nodetypes="cccc" />
      <path
         style="fill:none;stroke:#ffffff;stroke-width:0.499999;stroke-linecap:round;stroke-linejoin:round;paint-order:stroke markers fill"
         d="m 162.0286,-188.14195 -0.94386,1.49444 1.41579,-0.15731 z"
         id="path629" />
      <path
         style="fill:none;stroke:#ffffff;stroke-width:0.499999;stroke-linecap:round;stroke-linejoin:round;paint-order:stroke markers fill"
         d="m 161.71398,-193.41181 -4.48331,10.30376 v -12.27013 l -2.12368,13.60726 -0.55058,-13.05667"
         id="path631" />
      <path
         style="fill:none;stroke:#ffffff;stroke-width:0.499999;stroke-linecap:round;stroke-linejoin:round;paint-order:stroke markers fill"
         d="m 150.93829,-192.23199 -1.25847,2.91022 2.98888,-0.23596 z"
         id="path633" />
      <path
         style="fill:none;stroke:#ffffff;stroke-width:0.499999;stroke-linecap:round;stroke-linejoin:round;paint-order:stroke markers fill"
         d="m 153.29793,-187.67002 -4.56197,-0.15731"
         id="path635" />
      <path
         style="fill:none;stroke:#ffffff;stroke-width:0.499999;stroke-linecap:round;stroke-linejoin:round;paint-order:stroke markers fill"
         d="m 154.24179,-186.33289 -5.66314,0.94386"
         id="path637" />
      <path
         style="fill:none;stroke:#ffffff;stroke-width:0.499999;stroke-linecap:round;stroke-linejoin:round;paint-order:stroke markers fill"
         d="m 154.32044,-184.7598 -6.37102,1.33713"
         id="path639" />
      <path
         style="fill:none;stroke:#ffffff;stroke-width:0.499999;stroke-linecap:round;stroke-linejoin:round;paint-order:stroke markers fill"
         d="m 143.23014,-191.13083 4.40466,9.98915 -8.10143,2.98887 z"
         id="path641" />
      <path
         style="fill:none;stroke:#ffffff;stroke-width:0.499999;stroke-linecap:round;stroke-linejoin:round;paint-order:stroke markers fill"
         d="m 141.65704,-192.86123 -5.42717,23.36044 2.98888,-24.30429 -4.79794,25.95603 0.47193,-24.46159 -1.10116,24.46159 -2.75292,-23.59639 1.17982,23.83236"
         id="path643" />
      <path
         style="fill:none;stroke:#ffffff;stroke-width:0.499999;stroke-linecap:round;stroke-linejoin:round;paint-order:stroke markers fill"
         d="m 139.14009,-176.81568 10.46107,-3.06753 -11.24761,4.1687"
         id="path645" />
      <path
         style="fill:none;stroke:#ffffff;stroke-width:0.499999;stroke-linecap:round;stroke-linejoin:round;paint-order:stroke markers fill"
         d="M 126.94862,-145.58978 H 94.621555"
         id="path647" />
      <path
         style="fill:none;stroke:#ffffff;stroke-width:0.499999;stroke-linecap:round;stroke-linejoin:round;paint-order:stroke markers fill"
         d="M 127.4992,-143.54475 H 94.857521"
         id="path649" />
      <path
         style="fill:none;stroke:#ffffff;stroke-width:0.499999;stroke-linecap:round;stroke-linejoin:round;paint-order:stroke markers fill"
         d="m 103.43088,-140.63453 16.28151,-0.0787 1.73041,11.87686 z"
         id="path651" />
      <path
         style="fill:none;stroke:#ffffff;stroke-width:0.499999;stroke-linecap:round;stroke-linejoin:round;paint-order:stroke markers fill"
         d="m 99.104872,-139.53337 26.113348,14.86573"
         id="path653" />
      <path
         style="fill:none;stroke:#ffffff;stroke-width:0.499999;stroke-linecap:round;stroke-linejoin:round;paint-order:stroke markers fill"
         d="m 115.5437,-127.18458 8.88797,4.16869 -8.96663,1.57309 z"
         id="path655" />
      <path
         style="fill:none;stroke:#ffffff;stroke-width:0.499999;stroke-linecap:round;stroke-linejoin:round;paint-order:stroke markers fill"
         d="m 113.73464,-129.22961 -1.25848,21.78734 -0.8652,-22.57388 -3.69677,22.18061 2.12368,-22.41658"
         id="path657" />
      <path
         style="fill:none;stroke:#ffffff;stroke-width:0.499999;stroke-linecap:round;stroke-linejoin:round;paint-order:stroke markers fill"
         d="m 103.50953,-132.69041 5.19121,2.83156 -1.65175,9.04529 z"
         id="path659" />
      <path
         style="fill:none;stroke:#ffffff;stroke-width:0.499999;stroke-linecap:round;stroke-linejoin:round;paint-order:stroke markers fill"
         d="m 100.04873,-148.89327 26.03469,0.70789 -26.899893,-7.15757 26.427963,4.16869 -25.48411,-10.93299 26.82124,7.78681 -24.93352,-14.94439 29.25953,10.14645 -25.40546,-15.10169 24.93353,12.11282"
         id="path661" />
      <path
         style="fill:none;stroke:#ffffff;stroke-width:0.499999;stroke-linecap:round;stroke-linejoin:round;paint-order:stroke markers fill"
         d="m 114.91446,-172.33236 13.76456,6.37103 -0.0787,-19.19174 z"
         id="path663" />
      <path
         style="fill:none;stroke:#ffffff;stroke-width:0.499999;stroke-linecap:round;stroke-linejoin:round;paint-order:stroke markers fill"
         d="m 117.82468,-173.04025 8.73067,-6.60699 -0.15731,10.77568 z"
         id="path665" />
      <path
         style="fill:none;stroke:#ffffff;stroke-width:0.499999;stroke-linecap:round;stroke-linejoin:round;paint-order:stroke markers fill"
         d="m 114.52118,-109.8019 16.43883,0.47192 -0.55058,11.247619 9.91048,-3.775419 0.23597,8.730663 8.73067,-3.067532 3.06753,5.191207 9.28125,-2.988876 4.48331,1.415783 3.85408,-1.415783"
         id="path667" />
      <path
         style="fill:none;stroke:#ffffff;stroke-width:0.499999;stroke-linecap:round;stroke-linejoin:round;paint-order:stroke markers fill"
         d="m 118.1393,-106.65572 9.83183,-1.17982 -2.91022,6.92161 z"
         id="path669" />
      <path
         style="fill:none;stroke:#ffffff;stroke-width:0.499999;stroke-linecap:round;stroke-linejoin:round;paint-order:stroke markers fill"
         d="m 117.03813,-113.02675 10.933,-0.23596 -4.87659,-7.23623 z"
         id="path671" />
      <path
         style="fill:none;stroke:#ffffff;stroke-width:0.499999;stroke-linecap:round;stroke-linejoin:round;paint-order:stroke markers fill"
         d="m 132.69041,-107.52092 4.79794,4.09004 -5.7418,2.98888 z"
         id="path673" />
      <path
         style="fill:none;stroke:#ffffff;stroke-width:0.499999;stroke-linecap:round;stroke-linejoin:round;paint-order:stroke markers fill"
         d="m 138.66817,-99.576799 -6.68565,2.595602 6.52834,2.674261 z"
         id="path675" />
      <path
         style="fill:none;stroke:#ffffff;stroke-width:0.499999;stroke-linecap:round;stroke-linejoin:round;paint-order:stroke markers fill"
         d="m 144.3313,-92.812498 4.24735,-1.651749 1.33713,2.831568 z"
         id="path677" />
      <path
         style="fill:none;stroke:#ffffff;stroke-width:0.499999;stroke-linecap:round;stroke-linejoin:round;paint-order:stroke markers fill"
         d="m 158.17452,-91.475371 3.61811,-1.573091 0.86521,0.70789 z"
         id="path679" />
      <path
         style="fill:none;stroke:#ffffff;stroke-width:0.499999;stroke-linecap:round;stroke-linejoin:round;paint-order:stroke markers fill"
         d="m 151.80349,-95.644067 1.17982,2.831569 3.69677,-1.651749 z"
         id="path681" />
    </g>
    <g
       id="g854"
       clip-path="url(#clipPath772)"
       transform="translate(-0.52916667,0.52916667)"
       style="stroke:#ffff00">
      <path
         style="fill:#ff00ff;stroke:#ffff00;stroke-width:0.499999;stroke-linecap:round;stroke-linejoin:round;paint-order:stroke markers fill"
         d="m 179.48993,-186.56885 -4.09004,3.77542"
         id="path776" />
      <path
         style="fill:none;stroke:#ffff00;stroke-width:0.499999;stroke-linecap:round;stroke-linejoin:round;paint-order:stroke markers fill"
         d="m 178.70339,-184.13056 2.12367,-1.33713 -0.55058,1.80906 z"
         id="path778" />
      <path
         style="fill:#ff00ff;stroke:#ffff00;stroke-width:0.499999;stroke-linecap:round;stroke-linejoin:round;paint-order:stroke markers fill"
         d="m 181.84958,-185.70365 -1.41579,3.85407"
         id="path780" />
      <path
         style="fill:#ff00ff;stroke:#ffff00;stroke-width:0.499999;stroke-linecap:round;stroke-linejoin:round;paint-order:stroke markers fill"
         d="m 177.83819,-183.50132 1.88771,0.78654"
         id="path782" />
      <path
         style="fill:none;stroke:#ffff00;stroke-width:0.499999;stroke-linecap:round;stroke-linejoin:round;paint-order:stroke markers fill"
         d="m 174.06276,-183.02939 3.69677,-5.42717"
         id="path784" />
      <path
         style="fill:none;stroke:#ffff00;stroke-width:0.499999;stroke-linecap:round;stroke-linejoin:round;paint-order:stroke markers fill"
         d="m 173.19756,-186.88347 1.7304,0.55058 v -1.65175 z"
         id="path786" />
      <path
         style="fill:none;stroke:#ffff00;stroke-width:0.499999;stroke-linecap:round;stroke-linejoin:round;paint-order:stroke markers fill"
         d="m 174.45604,-185.625 -2.75292,-0.78654"
         id="path788" />
      <path
         style="fill:none;stroke:#ffff00;stroke-width:0.499999;stroke-linecap:round;stroke-linejoin:round;paint-order:stroke markers fill"
         d="m 174.14142,-189.16446 -5.0339,4.40466"
         id="path790" />
      <path
         style="fill:none;stroke:#ffff00;stroke-width:0.499999;stroke-linecap:round;stroke-linejoin:round;paint-order:stroke markers fill"
         d="m 167.9277,-184.68114 3.61811,-6.68565"
         id="path792" />
      <path
         style="fill:none;stroke:#ffff00;stroke-width:0.499999;stroke-linecap:round;stroke-linejoin:round;paint-order:stroke markers fill"
         d="m 166.74788,-184.91711 -0.70789,-7.70815"
         id="path794" />
      <path
         style="fill:none;stroke:#ffff00;stroke-width:0.499999;stroke-linecap:round;stroke-linejoin:round;paint-order:stroke markers fill"
         d="m 162.0286,-190.02966 -1.88771,4.09004 h 4.56197 z"
         id="path796" />
      <path
         style="fill:none;stroke:#ffff00;stroke-width:0.499999;stroke-linecap:round;stroke-linejoin:round;paint-order:stroke markers fill"
         d="m 162.26457,-192.07468 -3.69677,7.23623 7.23622,-0.31461 z"
         id="path798"
         sodipodi:nodetypes="cccc" />
      <path
         style="fill:none;stroke:#ffff00;stroke-width:0.499999;stroke-linecap:round;stroke-linejoin:round;paint-order:stroke markers fill"
         d="m 162.0286,-188.14195 -0.94386,1.49444 1.41579,-0.15731 z"
         id="path800" />
      <path
         style="fill:none;stroke:#ffff00;stroke-width:0.499999;stroke-linecap:round;stroke-linejoin:round;paint-order:stroke markers fill"
         d="m 161.71398,-193.41181 -4.48331,10.30376 v -12.27013 l -2.12368,13.60726 -0.55058,-13.05667"
         id="path802" />
      <path
         style="fill:none;stroke:#ffff00;stroke-width:0.499999;stroke-linecap:round;stroke-linejoin:round;paint-order:stroke markers fill"
         d="m 150.93829,-192.23199 -1.25847,2.91022 2.98888,-0.23596 z"
         id="path804" />
      <path
         style="fill:none;stroke:#ffff00;stroke-width:0.499999;stroke-linecap:round;stroke-linejoin:round;paint-order:stroke markers fill"
         d="m 153.29793,-187.67002 -4.56197,-0.15731"
         id="path806" />
      <path
         style="fill:none;stroke:#ffff00;stroke-width:0.499999;stroke-linecap:round;stroke-linejoin:round;paint-order:stroke markers fill"
         d="m 154.24179,-186.33289 -5.66314,0.94386"
         id="path808" />
      <path
         style="fill:none;stroke:#ffff00;stroke-width:0.499999;stroke-linecap:round;stroke-linejoin:round;paint-order:stroke markers fill"
         d="m 154.32044,-184.7598 -6.37102,1.33713"
         id="path810" />
      <path
         style="fill:none;stroke:#ffff00;stroke-width:0.499999;stroke-linecap:round;stroke-linejoin:round;paint-order:stroke markers fill"
         d="m 143.23014,-191.13083 4.40466,9.98915 -8.10143,2.98887 z"
         id="path812" />
      <path
         style="fill:none;stroke:#ffff00;stroke-width:0.499999;stroke-linecap:round;stroke-linejoin:round;paint-order:stroke markers fill"
         d="m 141.65704,-192.86123 -5.42717,23.36044 2.98888,-24.30429 -4.79794,25.95603 0.47193,-24.46159 -1.10116,24.46159 -2.75292,-23.59639 1.17982,23.83236"
         id="path814" />
      <path
         style="fill:none;stroke:#ffff00;stroke-width:0.499999;stroke-linecap:round;stroke-linejoin:round;paint-order:stroke markers fill"
         d="m 139.14009,-176.81568 10.46107,-3.06753 -11.24761,4.1687"
         id="path816" />
      <path
         style="fill:none;stroke:#ffff00;stroke-width:0.499999;stroke-linecap:round;stroke-linejoin:round;paint-order:stroke markers fill"
         d="M 126.94862,-145.58978 H 94.621555"
         id="path818" />
      <path
         style="fill:none;stroke:#ffff00;stroke-width:0.499999;stroke-linecap:round;stroke-linejoin:round;paint-order:stroke markers fill"
         d="M 127.4992,-143.54475 H 94.857521"
         id="path820" />
      <path
         style="fill:none;stroke:#ffff00;stroke-width:0.499999;stroke-linecap:round;stroke-linejoin:round;paint-order:stroke markers fill"
         d="m 103.43088,-140.63453 16.28151,-0.0787 1.73041,11.87686 z"
         id="path822" />
      <path
         style="fill:none;stroke:#ffff00;stroke-width:0.499999;stroke-linecap:round;stroke-linejoin:round;paint-order:stroke markers fill"
         d="m 99.104872,-139.53337 26.113348,14.86573"
         id="path824" />
      <path
         style="fill:none;stroke:#ffff00;stroke-width:0.499999;stroke-linecap:round;stroke-linejoin:round;paint-order:stroke markers fill"
         d="m 115.5437,-127.18458 8.88797,4.16869 -8.96663,1.57309 z"
         id="path826" />
      <path
         style="fill:none;stroke:#ffff00;stroke-width:0.499999;stroke-linecap:round;stroke-linejoin:round;paint-order:stroke markers fill"
         d="m 113.73464,-129.22961 -1.25848,21.78734 -0.8652,-22.57388 -3.69677,22.18061 2.12368,-22.41658"
         id="path828" />
      <path
         style="fill:none;stroke:#ffff00;stroke-width:0.499999;stroke-linecap:round;stroke-linejoin:round;paint-order:stroke markers fill"
         d="m 103.50953,-132.69041 5.19121,2.83156 -1.65175,9.04529 z"
         id="path830" />
      <path
         style="fill:none;stroke:#ffff00;stroke-width:0.499999;stroke-linecap:round;stroke-linejoin:round;paint-order:stroke markers fill"
         d="m 100.04873,-148.89327 26.03469,0.70789 -26.899893,-7.15757 26.427963,4.16869 -25.48411,-10.93299 26.82124,7.78681 -24.93352,-14.94439 29.25953,10.14645 -25.40546,-15.10169 24.93353,12.11282"
         id="path832" />
      <path
         style="fill:none;stroke:#ffff00;stroke-width:0.499999;stroke-linecap:round;stroke-linejoin:round;paint-order:stroke markers fill"
         d="m 114.91446,-172.33236 13.76456,6.37103 -0.0787,-19.19174 z"
         id="path834" />
      <path
         style="fill:none;stroke:#ffff00;stroke-width:0.499999;stroke-linecap:round;stroke-linejoin:round;paint-order:stroke markers fill"
         d="m 117.82468,-173.04025 8.73067,-6.60699 -0.15731,10.77568 z"
         id="path836" />
      <path
         style="fill:none;stroke:#ffff00;stroke-width:0.499999;stroke-linecap:round;stroke-linejoin:round;paint-order:stroke markers fill"
         d="m 114.52118,-109.8019 16.43883,0.47192 -0.55058,11.247619 9.91048,-3.775419 0.23597,8.730663 8.73067,-3.067532 3.06753,5.191207 9.28125,-2.988876 4.48331,1.415783 3.85408,-1.415783"
         id="path838" />
      <path
         style="fill:none;stroke:#ffff00;stroke-width:0.499999;stroke-linecap:round;stroke-linejoin:round;paint-order:stroke markers fill"
         d="m 118.1393,-106.65572 9.83183,-1.17982 -2.91022,6.92161 z"
         id="path840" />
      <path
         style="fill:none;stroke:#ffff00;stroke-width:0.499999;stroke-linecap:round;stroke-linejoin:round;paint-order:stroke markers fill"
         d="m 117.03813,-113.02675 10.933,-0.23596 -4.87659,-7.23623 z"
         id="path842" />
      <path
         style="fill:none;stroke:#ffff00;stroke-width:0.499999;stroke-linecap:round;stroke-linejoin:round;paint-order:stroke markers fill"
         d="m 132.69041,-107.52092 4.79794,4.09004 -5.7418,2.98888 z"
         id="path844" />
      <path
         style="fill:none;stroke:#ffff00;stroke-width:0.499999;stroke-linecap:round;stroke-linejoin:round;paint-order:stroke markers fill"
         d="m 138.66817,-99.576799 -6.68565,2.595602 6.52834,2.674261 z"
         id="path846" />
      <path
         style="fill:none;stroke:#ffff00;stroke-width:0.499999;stroke-linecap:round;stroke-linejoin:round;paint-order:stroke markers fill"
         d="m 144.3313,-92.812498 4.24735,-1.651749 1.33713,2.831568 z"
         id="path848" />
      <path
         style="fill:none;stroke:#ffff00;stroke-width:0.499999;stroke-linecap:round;stroke-linejoin:round;paint-order:stroke markers fill"
         d="m 158.17452,-91.475371 3.61811,-1.573091 0.86521,0.70789 z"
         id="path850" />
      <path
         style="fill:none;stroke:#ffff00;stroke-width:0.499999;stroke-linecap:round;stroke-linejoin:round;paint-order:stroke markers fill"
         d="m 151.80349,-95.644067 1.17982,2.831569 3.69677,-1.651749 z"
         id="path852" />
    </g>
    <g
       id="g934"
       clip-path="url(#clipPath772)"
       style="stroke:#0000ff"
       transform="translate(0.52916667)">
      <path
         style="fill:#ff00ff;stroke:#0000ff;stroke-width:0.499999;stroke-linecap:round;stroke-linejoin:round;paint-order:stroke markers fill"
         d="m 179.48993,-186.56885 -4.09004,3.77542"
         id="path856" />
      <path
         style="fill:none;stroke:#0000ff;stroke-width:0.499999;stroke-linecap:round;stroke-linejoin:round;paint-order:stroke markers fill"
         d="m 178.70339,-184.13056 2.12367,-1.33713 -0.55058,1.80906 z"
         id="path858" />
      <path
         style="fill:#ff00ff;stroke:#0000ff;stroke-width:0.499999;stroke-linecap:round;stroke-linejoin:round;paint-order:stroke markers fill"
         d="m 181.84958,-185.70365 -1.41579,3.85407"
         id="path860" />
      <path
         style="fill:#ff00ff;stroke:#0000ff;stroke-width:0.499999;stroke-linecap:round;stroke-linejoin:round;paint-order:stroke markers fill"
         d="m 177.83819,-183.50132 1.88771,0.78654"
         id="path862" />
      <path
         style="fill:none;stroke:#0000ff;stroke-width:0.499999;stroke-linecap:round;stroke-linejoin:round;paint-order:stroke markers fill"
         d="m 174.06276,-183.02939 3.69677,-5.42717"
         id="path864" />
      <path
         style="fill:none;stroke:#0000ff;stroke-width:0.499999;stroke-linecap:round;stroke-linejoin:round;paint-order:stroke markers fill"
         d="m 173.19756,-186.88347 1.7304,0.55058 v -1.65175 z"
         id="path866" />
      <path
         style="fill:none;stroke:#0000ff;stroke-width:0.499999;stroke-linecap:round;stroke-linejoin:round;paint-order:stroke markers fill"
         d="m 174.45604,-185.625 -2.75292,-0.78654"
         id="path868" />
      <path
         style="fill:none;stroke:#0000ff;stroke-width:0.499999;stroke-linecap:round;stroke-linejoin:round;paint-order:stroke markers fill"
         d="m 174.14142,-189.16446 -5.0339,4.40466"
         id="path870" />
      <path
         style="fill:none;stroke:#0000ff;stroke-width:0.499999;stroke-linecap:round;stroke-linejoin:round;paint-order:stroke markers fill"
         d="m 167.9277,-184.68114 3.61811,-6.68565"
         id="path872" />
      <path
         style="fill:none;stroke:#0000ff;stroke-width:0.499999;stroke-linecap:round;stroke-linejoin:round;paint-order:stroke markers fill"
         d="m 166.74788,-184.91711 -0.70789,-7.70815"
         id="path874" />
      <path
         style="fill:none;stroke:#0000ff;stroke-width:0.499999;stroke-linecap:round;stroke-linejoin:round;paint-order:stroke markers fill"
         d="m 162.0286,-190.02966 -1.88771,4.09004 h 4.56197 z"
         id="path876" />
      <path
         style="fill:none;stroke:#0000ff;stroke-width:0.499999;stroke-linecap:round;stroke-linejoin:round;paint-order:stroke markers fill"
         d="m 162.26457,-192.07468 -3.69677,7.23623 7.23622,-0.31461 z"
         id="path878"
         sodipodi:nodetypes="cccc" />
      <path
         style="fill:none;stroke:#0000ff;stroke-width:0.499999;stroke-linecap:round;stroke-linejoin:round;paint-order:stroke markers fill"
         d="m 162.0286,-188.14195 -0.94386,1.49444 1.41579,-0.15731 z"
         id="path880" />
      <path
         style="fill:none;stroke:#0000ff;stroke-width:0.499999;stroke-linecap:round;stroke-linejoin:round;paint-order:stroke markers fill"
         d="m 161.71398,-193.41181 -4.48331,10.30376 v -12.27013 l -2.12368,13.60726 -0.55058,-13.05667"
         id="path882" />
      <path
         style="fill:none;stroke:#0000ff;stroke-width:0.499999;stroke-linecap:round;stroke-linejoin:round;paint-order:stroke markers fill"
         d="m 150.93829,-192.23199 -1.25847,2.91022 2.98888,-0.23596 z"
         id="path884" />
      <path
         style="fill:none;stroke:#0000ff;stroke-width:0.499999;stroke-linecap:round;stroke-linejoin:round;paint-order:stroke markers fill"
         d="m 153.29793,-187.67002 -4.56197,-0.15731"
         id="path886" />
      <path
         style="fill:none;stroke:#0000ff;stroke-width:0.499999;stroke-linecap:round;stroke-linejoin:round;paint-order:stroke markers fill"
         d="m 154.24179,-186.33289 -5.66314,0.94386"
         id="path888" />
      <path
         style="fill:none;stroke:#0000ff;stroke-width:0.499999;stroke-linecap:round;stroke-linejoin:round;paint-order:stroke markers fill"
         d="m 154.32044,-184.7598 -6.37102,1.33713"
         id="path890" />
      <path
         style="fill:none;stroke:#0000ff;stroke-width:0.499999;stroke-linecap:round;stroke-linejoin:round;paint-order:stroke markers fill"
         d="m 143.23014,-191.13083 4.40466,9.98915 -8.10143,2.98887 z"
         id="path892" />
      <path
         style="fill:none;stroke:#0000ff;stroke-width:0.499999;stroke-linecap:round;stroke-linejoin:round;paint-order:stroke markers fill"
         d="m 141.65704,-192.86123 -5.42717,23.36044 2.98888,-24.30429 -4.79794,25.95603 0.47193,-24.46159 -1.10116,24.46159 -2.75292,-23.59639 1.17982,23.83236"
         id="path894" />
      <path
         style="fill:none;stroke:#0000ff;stroke-width:0.499999;stroke-linecap:round;stroke-linejoin:round;paint-order:stroke markers fill"
         d="m 139.14009,-176.81568 10.46107,-3.06753 -11.24761,4.1687"
         id="path896" />
      <path
         style="fill:none;stroke:#0000ff;stroke-width:0.499999;stroke-linecap:round;stroke-linejoin:round;paint-order:stroke markers fill"
         d="M 126.94862,-145.58978 H 94.621555"
         id="path898" />
      <path
         style="fill:none;stroke:#0000ff;stroke-width:0.499999;stroke-linecap:round;stroke-linejoin:round;paint-order:stroke markers fill"
         d="M 127.4992,-143.54475 H 94.857521"
         id="path900" />
      <path
         style="fill:none;stroke:#0000ff;stroke-width:0.499999;stroke-linecap:round;stroke-linejoin:round;paint-order:stroke markers fill"
         d="m 103.43088,-140.63453 16.28151,-0.0787 1.73041,11.87686 z"
         id="path902" />
      <path
         style="fill:none;stroke:#0000ff;stroke-width:0.499999;stroke-linecap:round;stroke-linejoin:round;paint-order:stroke markers fill"
         d="m 99.104872,-139.53337 26.113348,14.86573"
         id="path904" />
      <path
         style="fill:none;stroke:#0000ff;stroke-width:0.499999;stroke-linecap:round;stroke-linejoin:round;paint-order:stroke markers fill"
         d="m 115.5437,-127.18458 8.88797,4.16869 -8.96663,1.57309 z"
         id="path906" />
      <path
         style="fill:none;stroke:#0000ff;stroke-width:0.499999;stroke-linecap:round;stroke-linejoin:round;paint-order:stroke markers fill"
         d="m 113.73464,-129.22961 -1.25848,21.78734 -0.8652,-22.57388 -3.69677,22.18061 2.12368,-22.41658"
         id="path908" />
      <path
         style="fill:none;stroke:#0000ff;stroke-width:0.499999;stroke-linecap:round;stroke-linejoin:round;paint-order:stroke markers fill"
         d="m 103.50953,-132.69041 5.19121,2.83156 -1.65175,9.04529 z"
         id="path910" />
      <path
         style="fill:none;stroke:#0000ff;stroke-width:0.499999;stroke-linecap:round;stroke-linejoin:round;paint-order:stroke markers fill"
         d="m 100.04873,-148.89327 26.03469,0.70789 -26.899893,-7.15757 26.427963,4.16869 -25.48411,-10.93299 26.82124,7.78681 -24.93352,-14.94439 29.25953,10.14645 -25.40546,-15.10169 24.93353,12.11282"
         id="path912" />
      <path
         style="fill:none;stroke:#0000ff;stroke-width:0.499999;stroke-linecap:round;stroke-linejoin:round;paint-order:stroke markers fill"
         d="m 114.91446,-172.33236 13.76456,6.37103 -0.0787,-19.19174 z"
         id="path914" />
      <path
         style="fill:none;stroke:#0000ff;stroke-width:0.499999;stroke-linecap:round;stroke-linejoin:round;paint-order:stroke markers fill"
         d="m 117.82468,-173.04025 8.73067,-6.60699 -0.15731,10.77568 z"
         id="path916" />
      <path
         style="fill:none;stroke:#0000ff;stroke-width:0.499999;stroke-linecap:round;stroke-linejoin:round;paint-order:stroke markers fill"
         d="m 114.52118,-109.8019 16.43883,0.47192 -0.55058,11.247619 9.91048,-3.775419 0.23597,8.730663 8.73067,-3.067532 3.06753,5.191207 9.28125,-2.988876 4.48331,1.415783 3.85408,-1.415783"
         id="path918" />
      <path
         style="fill:none;stroke:#0000ff;stroke-width:0.499999;stroke-linecap:round;stroke-linejoin:round;paint-order:stroke markers fill"
         d="m 118.1393,-106.65572 9.83183,-1.17982 -2.91022,6.92161 z"
         id="path920" />
      <path
         style="fill:none;stroke:#0000ff;stroke-width:0.499999;stroke-linecap:round;stroke-linejoin:round;paint-order:stroke markers fill"
         d="m 117.03813,-113.02675 10.933,-0.23596 -4.87659,-7.23623 z"
         id="path922" />
      <path
         style="fill:none;stroke:#0000ff;stroke-width:0.499999;stroke-linecap:round;stroke-linejoin:round;paint-order:stroke markers fill"
         d="m 132.69041,-107.52092 4.79794,4.09004 -5.7418,2.98888 z"
         id="path924" />
      <path
         style="fill:none;stroke:#0000ff;stroke-width:0.499999;stroke-linecap:round;stroke-linejoin:round;paint-order:stroke markers fill"
         d="m 138.66817,-99.576799 -6.68565,2.595602 6.52834,2.674261 z"
         id="path926" />
      <path
         style="fill:none;stroke:#0000ff;stroke-width:0.499999;stroke-linecap:round;stroke-linejoin:round;paint-order:stroke markers fill"
         d="m 144.3313,-92.812498 4.24735,-1.651749 1.33713,2.831568 z"
         id="path928" />
      <path
         style="fill:none;stroke:#0000ff;stroke-width:0.499999;stroke-linecap:round;stroke-linejoin:round;paint-order:stroke markers fill"
         d="m 158.17452,-91.475371 3.61811,-1.573091 0.86521,0.70789 z"
         id="path930" />
      <path
         style="fill:none;stroke:#0000ff;stroke-width:0.499999;stroke-linecap:round;stroke-linejoin:round;paint-order:stroke markers fill"
         d="m 151.80349,-95.644067 1.17982,2.831569 3.69677,-1.651749 z"
         id="path932" />
    </g>
    <circle
       style="fill:none;stroke:#ff0000;stroke-width:0.499999;stroke-linecap:round;stroke-linejoin:round;paint-order:stroke markers fill"
       id="path1068"
       cx="199.94016"
       cy="-130.8027"
       r="5.8204446" />
    <path
       style="fill:none;stroke:#ff0000;stroke-width:0.499999;stroke-linecap:round;stroke-linejoin:round;paint-order:stroke markers fill"
       d="m 199.94015,-142.99417 v 24.38294"
       id="path1124" />
    <path
       style="fill:none;stroke:#ff0000;stroke-width:0.499999;stroke-linecap:round;stroke-linejoin:round;paint-order:stroke markers fill"
       d="m 187.74868,-130.8027 h 24.38294"
       id="path1126" />
    <path
       style="fill:none;stroke:#ff0000;stroke-width:0.499999;stroke-linecap:round;stroke-linejoin:round;paint-order:stroke markers fill"
       d="m 122.07203,-77.396186 c 9.81165,0.618594 18.06518,5.046266 28.00106,5.977755 27.69487,2.596394 61.8185,2.000655 89.03708,-1.887712 7.68459,-1.097798 32.74592,-7.003893 38.06886,-13.213984 7.58262,-8.846397 7.80431,-40.293403 8.8093,-52.855933 0.62109,-7.76328 1.56202,-24.92134 0.31465,-32.40572 -0.92978,-5.57863 -5.45955,-16.0741 -8.49472,-20.76483 -2.25565,-3.48598 -6.28491,-8.58387 -9.75317,-11.01165 -3.82684,-2.67878 -8.80437,-3.11013 -13.21399,-4.09004 -6.55049,-1.45567 -12.90758,-4.0594 -19.50636,-4.71928 -10.67477,-1.06748 -21.67648,-0.31462 -32.40572,-0.31462 -9.75317,0 -19.50635,0 -29.25953,0 -20.34027,0 -34.75205,-0.28528 -51.91208,12.58474 -3.46245,2.59684 -7.85193,5.17543 -10.69703,8.49471 -4.23477,4.94056 -8.02609,11.80815 -10.0678,17.93326 -0.67641,2.02923 -0.58206,4.26314 -1.258471,6.29237 -2.380363,7.14109 -5.245343,14.53424 -6.606992,22.02331 -2.287651,12.58208 -1.051549,35.73344 0.314619,49.395125 0.392485,3.924847 4.939612,9.131879 7.865464,11.32627 4.58711,3.440329 15.42986,0.977712 17.93327,7.236229 0.83302,2.082568 4.22311,4.586209 6.29237,2.51695 1.10916,-1.109165 -2.95583,-2.390706 -3.46081,-2.51695 z"
       id="path1191" />
  </g>
</svg>
