<?xml version="1.0" encoding="UTF-8" standalone="no"?>
<!-- Created with Inkscape (http://www.inkscape.org/) -->

<svg
   width="210mm"
   height="297mm"
   viewBox="0 0 210 297"
   version="1.1"
   id="svg1891"
   inkscape:version="1.2.2 (732a01da63, 2022-12-09)"
   sodipodi:docname="pb blendered.svg"
   xmlns:inkscape="http://www.inkscape.org/namespaces/inkscape"
   xmlns:sodipodi="http://sodipodi.sourceforge.net/DTD/sodipodi-0.dtd"
   xmlns="http://www.w3.org/2000/svg"
   xmlns:svg="http://www.w3.org/2000/svg">
  <sodipodi:namedview
     id="namedview1893"
     pagecolor="#505050"
     bordercolor="#ffffff"
     borderopacity="1"
     inkscape:showpageshadow="0"
     inkscape:pageopacity="0"
     inkscape:pagecheckerboard="1"
     inkscape:deskcolor="#505050"
     inkscape:document-units="mm"
     showgrid="false"
     inkscape:zoom="0.4204826"
     inkscape:cx="1811.0143"
     inkscape:cy="2409.1365"
     inkscape:window-width="1920"
     inkscape:window-height="1027"
     inkscape:window-x="-8"
     inkscape:window-y="-8"
     inkscape:window-maximized="1"
     inkscape:current-layer="layer1" />
  <defs
     id="defs1888" />
  <g
     inkscape:label="Layer 1"
     inkscape:groupmode="layer"
     id="layer1">
    <path
       style="opacity:0.684636;fill:#ffff00;fill-opacity:1;stroke:#ff0000;stroke-width:0.499999;stroke-linecap:round;stroke-linejoin:round;paint-order:stroke markers fill"
       d="m 556.93571,710.44336 c 3.56156,13.13357 7.00366,26.35435 10.66448,39.42683 4.05027,-0.0535 8.18904,0.10658 12.18438,-0.0796 -0.0531,-13.13815 0.10615,-26.36425 -0.0796,-39.44742 -7.57272,0.0666 -15.27908,-0.1333 -22.76928,0.10017 z"
       id="path1621" />
    <path
       style="opacity:0.684636;fill:#ffff00;fill-opacity:1;stroke:#ff0000;stroke-width:0.499999;stroke-linecap:round;stroke-linejoin:round;paint-order:stroke markers fill"
       d="m 557.05538,660.16687 c -4.46997,0.12898 -9.02001,-0.20251 -13.44551,0.32975 4.14721,16.35535 8.72527,32.67575 13.04483,49.00239 7.66918,0.31747 15.36949,0.10837 23.05029,0.17164 0.18573,-14.09973 0.0265,-28.34233 0.0796,-42.49703 -0.0533,-2.32574 0.10652,-4.7398 -0.0796,-7.01054 -7.54986,0.003 -15.09975,-0.003 -22.64961,0.004 z"
       id="path1623" />
    <path
       style="opacity:0.684636;fill:#ffff00;fill-opacity:1;stroke:#ff0000;stroke-width:0.499999;stroke-linecap:round;stroke-linejoin:round;paint-order:stroke markers fill"
       d="m 541.76289,580.32065 c -6.45808,0.10607 -12.94244,-0.19257 -19.38501,0.27074 -0.91575,0.28263 0.33348,1.5838 0.19251,2.18641 6.90853,25.54343 13.67424,51.15325 20.66208,76.65805 5.1689,0.55798 10.43471,0.20386 15.63904,0.32988 6.96008,-0.0485 14.00805,0.10719 20.91306,-0.0775 0,-26.43002 0,-52.86007 0,-79.29009 -12.6061,-0.18468 -25.36229,-0.0289 -38.02168,-0.0774 z"
       id="path1625" />
    <path
       style="opacity:0.684636;fill:#ffff00;fill-opacity:1;stroke:#ff0000;stroke-width:0.499999;stroke-linecap:round;stroke-linejoin:round;paint-order:stroke markers fill"
       d="m 533.7403,520.16212 c -9.26481,0.0953 -18.55264,-0.14023 -27.80339,0.29078 2.09253,8.75279 4.64274,17.55672 6.92562,26.32437 2.93651,10.81104 5.7353,21.68324 8.78975,32.44797 3.01289,0.65522 6.22168,0.22575 9.30317,0.39558 16.24979,0.0475 32.4997,0.0156 48.74954,0.0251 0.18573,-14.09973 0.0265,-28.34235 0.0796,-42.49703 -0.0531,-5.65269 0.10621,-11.39338 -0.0796,-16.99112 -15.32157,0.003 -30.64312,-0.004 -45.96469,0.004 z"
       id="path1627" />
    <path
       style="opacity:0.684636;fill:#ffff00;fill-opacity:1;stroke:#ff0000;stroke-width:0.499999;stroke-linecap:round;stroke-linejoin:round;paint-order:stroke markers fill"
       d="m 529.24709,500.20045 c -9.56535,0.10321 -19.1512,-0.16984 -28.70387,0.29726 -0.24776,0.83047 0.5916,2.08438 0.66709,3.03718 1.48034,5.28391 2.76241,10.6835 4.34647,15.90275 8.51215,0.50387 17.07203,0.20614 25.60227,0.3189 16.18197,0.0116 32.36397,0.004 48.54594,0.006 0.18576,-6.42946 0.0265,-13.00187 0.0796,-19.48627 -16.14286,-0.1841 -32.42815,-0.0301 -48.62605,-0.0765 -0.63714,2.1e-4 -1.27428,0 -1.91143,0 z"
       id="path1629" />
    <path
       style="opacity:0.684636;fill:#ffff00;fill-opacity:1;stroke:#ff0000;stroke-width:0.499999;stroke-linecap:round;stroke-linejoin:round;paint-order:stroke markers fill"
       d="m 580.17986,570.4175 c 0,46.3912 0,92.78237 0,139.17356 14.09973,0.18574 28.34235,0.0265 42.49703,0.0796 5.65272,-0.0531 11.39338,0.1062 16.99115,-0.0796 0,-46.39119 0,-92.78236 0,-139.17356 -14.09976,-0.18573 -28.34236,-0.0265 -42.49706,-0.0796 -5.65224,0.0529 -11.39399,-0.10594 -16.99112,0.0796 z"
       id="path1631" />
    <path
       style="opacity:0.684636;fill:#ffff00;fill-opacity:1;stroke:#ff0000;stroke-width:0.499999;stroke-linecap:round;stroke-linejoin:round;paint-order:stroke markers fill"
       d="m 640.42014,600.01213 c -0.18566,14.14436 -0.0267,28.43146 -0.0796,42.6308 0.0535,5.69712 -0.1067,11.48276 0.0796,17.12487 10.81879,-0.0409 21.64337,0.0973 32.45853,-0.11915 4.58819,-19.73296 9.15971,-39.52052 13.64099,-59.29701 -1.72567,-0.43482 -3.81839,-0.11927 -5.65777,-0.26768 -13.47999,-0.13422 -26.96131,-0.0538 -40.44175,-0.0718 z"
       id="path1633" />
    <path
       style="opacity:0.684636;fill:#ffff00;fill-opacity:1;stroke:#ff0000;stroke-width:0.499999;stroke-linecap:round;stroke-linejoin:round;paint-order:stroke markers fill"
       d="m 640.34055,660.24267 c 0,29.84931 0,59.69863 0,89.54794 3.85617,0.12647 7.87578,0.15343 11.77288,-0.0536 6.86374,-29.82159 13.79363,-59.64169 20.61363,-89.47806 -10.67792,-0.22344 -21.55325,-0.0317 -32.30692,-0.0958 z"
       id="path1635" />
    <path
       style="opacity:0.684636;fill:#ffff00;fill-opacity:1;stroke:#ff0000;stroke-width:0.499999;stroke-linecap:round;stroke-linejoin:round;paint-order:stroke markers fill"
       d="m 630.35997,750.34507 c 0.0532,3.15751 -0.10634,6.40315 0.0796,9.50568 6.44663,-0.0413 12.95104,0.0825 19.36171,-0.0617 0.61306,-3.09134 1.61689,-6.27277 1.99104,-9.32538 -7.10716,-0.35425 -14.23683,-0.13308 -21.35275,-0.19817 z"
       id="path1637" />
    <path
       style="opacity:0.684636;fill:#ffff00;fill-opacity:1;stroke:#ff0000;stroke-width:0.499999;stroke-linecap:round;stroke-linejoin:round;paint-order:stroke markers fill"
       d="m 575.28324,750.26765 c -2.44887,0.17264 -5.05356,-0.29014 -7.4291,0.33028 0.48948,2.8103 1.48865,5.66986 2.17757,8.49307 0.35886,1.13536 2.09222,0.46842 2.94593,0.72512 5.58564,0.0161 11.25699,0.1256 16.78752,-0.0449 -0.0532,-3.15751 0.10634,-6.40316 -0.0796,-9.50569 -4.80076,0 -9.60152,-0.003 -14.40231,0.003 z"
       id="path1639" />
    <path
       style="opacity:0.684636;fill:#ffff00;fill-opacity:1;stroke:#ff0000;stroke-width:0.499999;stroke-linecap:round;stroke-linejoin:round;paint-order:stroke markers fill"
       d="m 640.34055,550.45636 c 0,16.35704 0,32.71411 0,49.07116 4.96636,0.13269 10.16368,0.13269 15.13004,0 0,-16.35705 0,-32.71412 0,-49.07116 -4.95908,-0.13251 -10.17317,-0.13248 -15.13004,0 z"
       id="path1641" />
    <path
       style="opacity:0.684636;fill:#ffff00;fill-opacity:1;stroke:#ff0000;stroke-width:0.499999;stroke-linecap:round;stroke-linejoin:round;paint-order:stroke markers fill"
       d="m 655.86588,550.17913 c 0.0532,13.23049 -0.10615,26.54906 0.0796,39.72464 4.63962,-0.0543 9.36847,0.10674 13.95343,-0.0796 -0.0122,-7.41307 -0.0246,-14.82611 -0.0368,-22.23916 3.23096,-0.1044 6.55254,0.003 9.72826,-0.23013 -0.0533,-3.33799 0.10639,-6.76418 -0.0796,-10.04718 -3.20791,0 -6.41582,0 -9.62374,0 -0.0536,-2.39149 0.10639,-4.87151 -0.0796,-7.20821 -4.6356,0.0529 -9.36109,-0.10591 -13.9415,0.0796 z"
       id="path1643" />
    <path
       style="opacity:0.684636;fill:#ffff00;fill-opacity:1;stroke:#ff0000;stroke-width:0.499999;stroke-linecap:round;stroke-linejoin:round;paint-order:stroke markers fill"
       d="m 670.28226,567.92238 c 0,7.45889 0,14.91779 0,22.37668 -4.79438,0.0533 -9.67685,-0.10612 -14.41638,0.0796 0.11343,2.99381 -0.22918,6.1023 0.24043,9.04002 10.19445,0.3017 20.46203,0.20325 30.62938,0.12835 2.43284,-10.51137 4.98443,-21.06798 7.22066,-31.58133 -7.8737,-0.17711 -15.85042,-0.18225 -23.67409,-0.0433 z"
       id="path1645" />
    <path
       style="opacity:0.684636;fill:#ffff00;fill-opacity:1;stroke:#ff0000;stroke-width:0.499999;stroke-linecap:round;stroke-linejoin:round;paint-order:stroke markers fill"
       d="m 670.64992,500.27517 c -0.15345,14.42735 -0.51956,28.94115 -0.28913,43.31684 3.25466,0.0501 6.5093,0.1003 9.76397,0.15052 0.10083,7.89048 -0.009,15.86958 0.22362,23.70495 4.60505,-0.0415 9.26796,0.0826 13.83702,-0.0617 5.12967,-22.36653 10.37704,-44.70744 15.41434,-67.09434 -9.45142,-0.22111 -19.09673,-0.0316 -28.62268,-0.0947 -3.43085,0.0523 -6.95031,-0.10456 -10.32714,0.0785 z"
       id="path1647" />
    <path
       style="opacity:0.684636;fill:#ffff00;fill-opacity:1;stroke:#ff0000;stroke-width:0.499999;stroke-linecap:round;stroke-linejoin:round;paint-order:stroke markers fill"
       d="m 670.28226,544.35713 c 0.0541,4.17367 -0.10692,8.43648 0.0796,12.5553 3.06443,-0.0548 6.21887,0.10766 9.22846,-0.0796 -0.0541,-4.17369 0.10691,-8.43648 -0.0796,-12.55532 -3.06355,0.0544 -6.22011,-0.10703 -9.22845,0.0796 z"
       id="path1649" />
    <path
       style="opacity:0.684636;fill:#ffff00;fill-opacity:1;stroke:#ff0000;stroke-width:0.499999;stroke-linecap:round;stroke-linejoin:round;paint-order:stroke markers fill"
       d="m 660.02444,537.98065 c 0.0532,3.89683 -0.10625,7.88172 0.0796,11.7236 3.24932,-0.0547 6.58844,0.10748 9.78291,-0.0796 -0.0532,-3.89684 0.10628,-7.88173 -0.0796,-11.72361 -3.2485,0.0542 -6.5896,-0.10689 -9.78294,0.0796 z"
       id="path1651" />
    <path
       style="opacity:0.684636;fill:#ffff00;fill-opacity:1;stroke:#ff0000;stroke-width:0.499999;stroke-linecap:round;stroke-linejoin:round;paint-order:stroke markers fill"
       d="m 660.02444,526.05939 c 0.0532,3.71203 -0.10628,7.51211 0.0796,11.16912 3.24932,-0.0546 6.58844,0.1075 9.78291,-0.0796 -0.0532,-3.712 0.10628,-7.51208 -0.0796,-11.16912 -3.2485,0.0542 -6.5896,-0.10689 -9.78294,0.0796 z"
       id="path1653" />
    <path
       style="opacity:0.684636;fill:#ffff00;fill-opacity:1;stroke:#ff0000;stroke-width:0.499999;stroke-linecap:round;stroke-linejoin:round;paint-order:stroke markers fill"
       d="m 660.02444,514.4154 c 0.0532,3.712 -0.10628,7.51207 0.0796,11.16912 3.24932,-0.0546 6.58844,0.1075 9.78291,-0.0796 -0.0532,-3.712 0.10628,-7.5121 -0.0796,-11.16912 -3.2485,0.0542 -6.5896,-0.10689 -9.78294,0.0796 z"
       id="path1655" />
    <path
       style="opacity:0.684636;fill:#ffff00;fill-opacity:1;stroke:#ff0000;stroke-width:0.499999;stroke-linecap:round;stroke-linejoin:round;paint-order:stroke markers fill"
       d="m 640.34055,514.4154 c 0.0533,11.75186 -0.10617,23.59186 0.0796,35.28885 6.3918,-0.0536 12.87209,0.10642 19.20904,-0.0796 -0.0533,-11.75187 0.10618,-23.59186 -0.0796,-35.28883 -6.39141,0.0534 -12.87264,-0.10615 -19.20902,0.0796 z"
       id="path1657" />
    <path
       style="opacity:0.684636;fill:#ffff00;fill-opacity:1;stroke:#ff0000;stroke-width:0.499999;stroke-linecap:round;stroke-linejoin:round;paint-order:stroke markers fill"
       d="m 640.34055,500.27625 c 0.0531,4.45132 -0.10625,8.99067 0.0796,13.38704 9.81128,-0.0531 19.71051,0.10615 29.46683,-0.0796 -0.0531,-4.45132 0.10626,-8.99067 -0.0796,-13.38702 -9.81104,0.053 -19.71087,-0.10601 -29.46683,0.0796 z"
       id="path1659" />
    <rect
       style="display:inline;opacity:0.684636;fill:none;fill-opacity:1;stroke:#0000ff;stroke-width:0.499999;stroke-linecap:round;stroke-linejoin:round;paint-order:stroke markers fill"
       id="rect22936"
       width="20"
       height="10"
       x="540"
       y="550"
       rx="1.1368684e-13"
       ry="1.1368684e-13" />
    <rect
       style="display:inline;opacity:0.684636;fill:none;fill-opacity:1;stroke:#0000ff;stroke-width:0.499999;stroke-linecap:round;stroke-linejoin:round;paint-order:stroke markers fill"
       id="rect22938"
       width="10"
       height="10"
       x="570"
       y="550"
       rx="1.1368684e-13"
       ry="1.1368684e-13" />
    <rect
       style="display:inline;opacity:0.684636;fill:#ffffff;fill-opacity:1;stroke:#ff0000;stroke-width:0.499999;stroke-linecap:round;stroke-linejoin:round;stroke-dasharray:none;paint-order:stroke markers fill"
       id="rect4759"
       width="20"
       height="15.291667"
       x="570"
       y="682.35419"
       rx="1.1368684e-13"
       ry="1.1368684e-13" />
    <rect
       style="display:inline;opacity:0.684636;fill:#ffffff;fill-opacity:1;stroke:#ff0000;stroke-width:0.499999;stroke-linecap:round;stroke-linejoin:round;stroke-dasharray:none;paint-order:stroke markers fill"
       id="rect5487"
       width="20"
       height="15.291667"
       x="570"
       y="642.35419"
       rx="1.1368684e-13"
       ry="1.1368684e-13" />
    <rect
       style="display:inline;opacity:0.684636;fill:#ffffff;fill-opacity:1;stroke:#ff0000;stroke-width:0.499999;stroke-linecap:round;stroke-linejoin:round;stroke-dasharray:none;paint-order:stroke markers fill"
       id="rect6215"
       width="20"
       height="15.291667"
       x="570"
       y="602.35413"
       rx="1.1368684e-13"
       ry="1.1368684e-13" />
    <rect
       style="display:inline;opacity:0.684636;fill:#ffffff;fill-opacity:1;stroke:#ff0000;stroke-width:0.499999;stroke-linecap:round;stroke-linejoin:round;stroke-dasharray:none;paint-order:stroke markers fill"
       id="rect8397"
       width="20"
       height="15.291667"
       x="630"
       y="682.35419"
       rx="1.1368684e-13"
       ry="1.1368684e-13" />
    <rect
       style="display:inline;opacity:0.684636;fill:#ffffff;fill-opacity:1;stroke:#ff0000;stroke-width:0.499999;stroke-linecap:round;stroke-linejoin:round;stroke-dasharray:none;paint-order:stroke markers fill"
       id="rect8399"
       width="20"
       height="15.291667"
       x="630"
       y="642.35419"
       rx="1.1368684e-13"
       ry="1.1368684e-13" />
    <rect
       style="display:inline;opacity:0.684636;fill:#ffffff;fill-opacity:1;stroke:#ff0000;stroke-width:0.499999;stroke-linecap:round;stroke-linejoin:round;stroke-dasharray:none;paint-order:stroke markers fill"
       id="rect8401"
       width="20"
       height="15.291667"
       x="630"
       y="602.35413"
       rx="1.1368684e-13"
       ry="1.1368684e-13" />
    <rect
       style="display:inline;opacity:0.684636;fill:#ffffff;fill-opacity:1;stroke:#2bff00;stroke-width:0.499999;stroke-linecap:round;stroke-linejoin:round;stroke-dasharray:none;stroke-opacity:1;paint-order:stroke markers fill"
       id="rect9865"
       width="10"
       height="20"
       x="520"
       y="570"
       rx="1.1368684e-13"
       ry="1.1368684e-13" />
    <rect
       style="display:inline;opacity:0.684636;fill:#ffffff;fill-opacity:1;stroke:#2bff00;stroke-width:0.499999;stroke-linecap:round;stroke-linejoin:round;stroke-dasharray:none;stroke-opacity:1;paint-order:stroke markers fill"
       id="rect12775"
       width="10"
       height="20"
       x="520"
       y="510"
       rx="1.1368684e-13"
       ry="1.1368684e-13" />
    <rect
       style="display:inline;opacity:0.684636;fill:#ffffff;fill-opacity:1;stroke:#ff0000;stroke-width:0.5;stroke-linecap:round;stroke-linejoin:round;stroke-dasharray:none;stroke-opacity:1;paint-order:stroke markers fill"
       id="rect20220"
       width="4.2046199"
       height="10"
       x="637.89771"
       y="580"
       rx="1.1368684e-13"
       ry="1.1368684e-13" />
    <rect
       style="display:inline;opacity:0.684636;fill:#ffffff;fill-opacity:1;stroke:#ff0000;stroke-width:0.500001;stroke-linecap:round;stroke-linejoin:round;stroke-dasharray:none;stroke-opacity:1;paint-order:stroke markers fill"
       id="rect20347"
       width="3.365778"
       height="10"
       x="653.78815"
       y="567.37323"
       rx="1.1368684e-13"
       ry="1.1368684e-13" />
    <path
       id="rect58945"
       style="display:inline;opacity:0.684636;fill:#ffffff;fill-opacity:1;stroke:#ff0000;stroke-width:0.500001;stroke-linecap:round;stroke-linejoin:round;paint-order:stroke markers fill"
       d="m 679.28346,555.25064 v 3.36578 0 h -8.62774 v 0 -3.36578 0 z"
       sodipodi:nodetypes="cccccccc" />
    <rect
       style="display:inline;opacity:0.684636;fill:#ffffff;fill-opacity:1;stroke:#2bff00;stroke-width:0.500001;stroke-linecap:round;stroke-linejoin:round;stroke-dasharray:none;stroke-opacity:1;paint-order:stroke markers fill"
       id="rect10593"
       width="10"
       height="3.6311305"
       x="643.48242"
       y="548.18445"
       rx="1.1368684e-13"
       ry="1.1368684e-13" />
    <path
       id="path70624"
       style="display:inline;opacity:0.684636;fill:#ffffff;fill-opacity:1;stroke:#ff0000;stroke-width:0.500001;stroke-linecap:round;stroke-linejoin:round;paint-order:stroke markers fill"
       d="m 667.53914,588.41103 v 3.36578 0 h -8.62774 v 0 -3.36578 0 z"
       sodipodi:nodetypes="cccccccc" />
    <path
       id="path70628"
       style="display:inline;opacity:0.684636;fill:#ffffff;fill-opacity:1;stroke:#ff0000;stroke-width:0.500001;stroke-linecap:round;stroke-linejoin:round;paint-order:stroke markers fill"
       d="m 661.50267,548.11162 h -3.36578 v 0 -8.62774 0 h 3.36578 v 0 z"
       sodipodi:nodetypes="cccccccc" />
    <path
       id="path70630"
       style="display:inline;opacity:0.684636;fill:#ffffff;fill-opacity:1;stroke:#ff0000;stroke-width:0.500001;stroke-linecap:round;stroke-linejoin:round;paint-order:stroke markers fill"
       d="m 661.50267,536.05444 h -3.36578 v 0 -8.62774 0 h 3.36578 v 0 z"
       sodipodi:nodetypes="cccccccc" />
    <path
       id="path70632"
       style="display:inline;opacity:0.684636;fill:#ffffff;fill-opacity:1;stroke:#ff0000;stroke-width:0.500001;stroke-linecap:round;stroke-linejoin:round;paint-order:stroke markers fill"
       d="m 661.50267,524.09528 h -3.36578 v 0 -8.62774 0 h 3.36578 v 0 z"
       sodipodi:nodetypes="cccccccc" />
    <rect
       style="display:inline;opacity:0.684636;fill:#ffffff;fill-opacity:1;stroke:#2bff00;stroke-width:0.499999;stroke-linecap:round;stroke-linejoin:round;stroke-dasharray:none;stroke-opacity:1;paint-order:stroke markers fill"
       id="rect9865-1"
       width="10"
       height="20"
       x="-735"
       y="570"
       rx="1.1368684e-13"
       ry="1.1368684e-13"
       transform="rotate(-90)" />
    <rect
       style="display:inline;opacity:0.684636;fill:#ffffff;fill-opacity:1;stroke:#ff0000;stroke-width:0.499999;stroke-linecap:round;stroke-linejoin:round;stroke-dasharray:none;stroke-opacity:1;paint-order:stroke markers fill"
       id="rect17243"
       width="40"
       height="20"
       x="589.99994"
       y="699.99994"
       rx="1.1368684e-13"
       ry="1.1368684e-13" />
  </g>
</svg>
