<?xml version="1.0" encoding="UTF-8" standalone="no"?>
<!-- Created with Inkscape (http://www.inkscape.org/) -->

<svg
   width="210mm"
   height="297mm"
   viewBox="0 0 210 297"
   version="1.1"
   id="svg1"
   inkscape:version="1.3 (0e150ed6c4, 2023-07-21)"
   sodipodi:docname="pb halway.svg"
   xmlns:inkscape="http://www.inkscape.org/namespaces/inkscape"
   xmlns:sodipodi="http://sodipodi.sourceforge.net/DTD/sodipodi-0.dtd"
   xmlns="http://www.w3.org/2000/svg"
   xmlns:svg="http://www.w3.org/2000/svg">
  <sodipodi:namedview
     id="namedview1"
     pagecolor="#505050"
     bordercolor="#eeeeee"
     borderopacity="1"
     inkscape:showpageshadow="0"
     inkscape:pageopacity="0"
     inkscape:pagecheckerboard="0"
     inkscape:deskcolor="#505050"
     inkscape:document-units="mm"
     inkscape:zoom="0.18507471"
     inkscape:cx="1791.1686"
     inkscape:cy="2893.4262"
     inkscape:window-width="1920"
     inkscape:window-height="1027"
     inkscape:window-x="-8"
     inkscape:window-y="-8"
     inkscape:window-maximized="1"
     inkscape:current-layer="layer1" />
  <defs
     id="defs1" />
  <g
     inkscape:label="Layer 1"
     inkscape:groupmode="layer"
     id="layer1">
    <path
       style="opacity:0.684636;fill:#ffff00;fill-opacity:1;stroke:#ff0000;stroke-width:0.499999;stroke-linecap:round;stroke-linejoin:round;paint-order:stroke markers fill"
       d="m 541.76288,580.32065 c -6.45808,0.10607 -12.94244,-0.19257 -19.38501,0.27074 -0.91575,0.28263 0.33348,1.5838 0.19251,2.18641 6.90853,25.54343 13.67424,51.15325 20.66208,76.65805 5.1689,0.55798 10.43471,0.20386 15.63904,0.32988 6.96008,-0.0485 14.00805,0.10719 20.91306,-0.0775 0,-26.43002 0,-52.86007 0,-79.29009 -12.6061,-0.18468 -25.36229,-0.0289 -38.02168,-0.0774 z"
       id="path1625" />
    <path
       style="opacity:0.684636;fill:#ffff00;fill-opacity:1;stroke:#ff0000;stroke-width:0.499999;stroke-linecap:round;stroke-linejoin:round;paint-order:stroke markers fill"
       d="m 580.17985,570.4175 c 0,46.3912 0,92.78237 0,139.17356 14.09973,0.18574 28.34235,0.0265 42.49703,0.0796 5.65272,-0.0531 11.39338,0.1062 16.99115,-0.0796 0,-46.39119 0,-92.78236 0,-139.17356 -14.09976,-0.18573 -28.34236,-0.0265 -42.49706,-0.0796 -5.65224,0.0529 -11.39399,-0.10594 -16.99112,0.0796 z"
       id="path1631" />
    <rect
       style="display:inline;opacity:0.684636;fill:#ffffff;fill-opacity:1;stroke:#ff0000;stroke-width:0.499999;stroke-linecap:round;stroke-linejoin:round;stroke-dasharray:none;paint-order:stroke markers fill"
       id="rect5487"
       width="20"
       height="15.291667"
       x="570"
       y="642.35419"
       rx="1.1368684e-13"
       ry="1.1368684e-13" />
    <rect
       style="display:inline;opacity:0.684636;fill:#ffffff;fill-opacity:1;stroke:#ff0000;stroke-width:0.499999;stroke-linecap:round;stroke-linejoin:round;stroke-dasharray:none;paint-order:stroke markers fill"
       id="rect6215"
       width="20"
       height="15.291667"
       x="570"
       y="602.35413"
       rx="1.1368684e-13"
       ry="1.1368684e-13" />
  </g>
</svg>
