<?xml version="1.0" encoding="UTF-8" standalone="no"?>
<!-- Created with Inkscape (http://www.inkscape.org/) -->

<svg
   width="210mm"
   height="297mm"
   viewBox="0 0 210 297"
   version="1.1"
   id="svg543"
   inkscape:version="1.2.2 (732a01da63, 2022-12-09)"
   sodipodi:docname="pb information roo.svg"
   xmlns:inkscape="http://www.inkscape.org/namespaces/inkscape"
   xmlns:sodipodi="http://sodipodi.sourceforge.net/DTD/sodipodi-0.dtd"
   xmlns="http://www.w3.org/2000/svg"
   xmlns:svg="http://www.w3.org/2000/svg">
  <sodipodi:namedview
     id="namedview545"
     pagecolor="#505050"
     bordercolor="#ffffff"
     borderopacity="1"
     inkscape:showpageshadow="0"
     inkscape:pageopacity="0"
     inkscape:pagecheckerboard="1"
     inkscape:deskcolor="#505050"
     inkscape:document-units="mm"
     showgrid="false"
     inkscape:zoom="0.2102413"
     inkscape:cx="1662.3756"
     inkscape:cy="2335.4117"
     inkscape:window-width="1920"
     inkscape:window-height="1027"
     inkscape:window-x="-8"
     inkscape:window-y="-8"
     inkscape:window-maximized="1"
     inkscape:current-layer="layer1" />
  <defs
     id="defs540" />
  <g
     inkscape:label="Layer 1"
     inkscape:groupmode="layer"
     id="layer1">
    <path
       style="opacity:0.684636;fill:#ffff00;fill-opacity:1;stroke:#ff0000;stroke-width:0.499999;stroke-linecap:round;stroke-linejoin:round;paint-order:stroke markers fill"
       d="m 556.93571,710.44336 c 3.56156,13.13357 7.00366,26.35435 10.66448,39.42683 4.05027,-0.0535 8.18904,0.10658 12.18438,-0.0796 -0.0531,-13.13815 0.10615,-26.36425 -0.0796,-39.44742 -7.57272,0.0666 -15.27908,-0.1333 -22.76928,0.10017 z"
       id="path1621" />
    <path
       style="opacity:0.684636;fill:#ffff00;fill-opacity:1;stroke:#ff0000;stroke-width:0.499999;stroke-linecap:round;stroke-linejoin:round;paint-order:stroke markers fill"
       d="m 630.35997,750.34507 c 0.0532,3.15751 -0.10634,6.40315 0.0796,9.50568 6.44663,-0.0413 12.95104,0.0825 19.36171,-0.0617 0.61306,-3.09134 1.61689,-6.27277 1.99104,-9.32538 -7.10716,-0.35425 -14.23683,-0.13308 -21.35275,-0.19817 z"
       id="path1637" />
    <path
       style="opacity:0.684636;fill:#ffff00;fill-opacity:1;stroke:#ff0000;stroke-width:0.499999;stroke-linecap:round;stroke-linejoin:round;paint-order:stroke markers fill"
       d="m 575.28324,750.26765 c -2.44887,0.17264 -5.05356,-0.29014 -7.4291,0.33028 0.48948,2.8103 1.48865,5.66986 2.17757,8.49307 0.35886,1.13536 2.09222,0.46842 2.94593,0.72512 5.58564,0.0161 11.25699,0.1256 16.78752,-0.0449 -0.0532,-3.15751 0.10634,-6.40316 -0.0796,-9.50569 -4.80076,0 -9.60152,-0.003 -14.40231,0.003 z"
       id="path1639" />
    <rect
       style="display:inline;opacity:0.684636;fill:#ffffff;fill-opacity:1;stroke:#2bff00;stroke-width:0.499999;stroke-linecap:round;stroke-linejoin:round;stroke-dasharray:none;stroke-opacity:1;paint-order:stroke markers fill"
       id="rect9865-1"
       width="10"
       height="20"
       x="-735"
       y="570"
       rx="1.1368684e-13"
       ry="1.1368684e-13"
       transform="rotate(-90)" />
  </g>
</svg>
